# xmcd CD database file
#
# Track frame offsets:
#	182
#	20342
#	40005
#	59507
#	74772
#	89805
#	104640
#	122115
#	143227
#	155017
#	171345
#	188270
#	195852
#	211760
#	231370
#	245780
#
# Disc length: 3537 seconds
#
# Revision: 0
# Processed by: cddbd v1.5.1PL0 Copyright (c) Steve Scherf et al.
# Submitted via: CDex 1.60beta1
#
DISCID=eb0dcf10
DTITLE=Serge Chaloff - Complete [CD3]
DYEAR=1993
DGENRE=Jazz
TTITLE0=The Fabel Of Mabel (Alt #1)
TTITLE1=The Fabel Of Mabel (Alt #2)
TTITLE2=The Fabel Of Mabel
TTITLE3=Mar-Dros
TTITLE4=Kip
TTITLE5=Unison
TTITLE6=Body And Soul
TTITLE7=Yesterday's Gardenias
TTITLE8=Bob The Robin
TTITLE9=What's New
TTITLE10=Bomareemaroja
TTITLE11=Diane's Melody
TTITLE12=Herbs (Short Take)
TTITLE13=Herbs (Long Take)
TTITLE14=Sergical
TTITLE15=JR
EXTD=YEAR: 1993
EXTT0=
EXTT1=
EXTT2=
EXTT3=
EXTT4=
EXTT5=
EXTT6=
EXTT7=
EXTT8=
EXTT9=
EXTT10=
EXTT11=
EXTT12=
EXTT13=
EXTT14=
EXTT15=
PLAYORDER=
